<?xml version="1.0" encoding="utf-8"?>
<!-- Generator: Adobe Illustrator 15.0.0, SVG Export Plug-In . SVG Version: 6.00 Build 0)  -->
<!DOCTYPE svg PUBLIC "-//W3C//DTD SVG 1.1//EN" "http://www.w3.org/Graphics/SVG/1.1/DTD/svg11.dtd">
<svg version="1.1" id="Layer_1" xmlns="http://www.w3.org/2000/svg" xmlns:xlink="http://www.w3.org/1999/xlink" x="0px" y="0px"
	 width="500px" height="500px" viewBox="0 0 500 500" enable-background="new 0 0 500 500" xml:space="preserve">
<polygon id="triangle36_2_" opacity="0.08" fill="#050505" points="248.5,62 276.5,137 241.5,116 "/>
<polygon id="triangle36_6_" opacity="0.13" fill="#050505" points="130.5,238 183.5,130 254.5,146 "/>
<polygon id="triangle36_7_" opacity="0.1" fill="#050505" points="183.5,130 241.5,116 254.5,146 "/>
<polygon id="triangle36_8_" opacity="0.13" fill="#050505" points="241.5,116 276.5,137 254.5,146 "/>
<polygon id="triangle36_9_" opacity="0.12" fill="#050505" points="276.5,137 317.5,322 254.5,146 "/>
<polygon id="triangle36_14_" opacity="0.13" fill="#050505" points="130.5,238 254.5,146 277.5,325 "/>
<polygon id="triangle36_15_" opacity="0.09" fill="#050505" points="254.5,146 317.5,322 277.5,325 "/>
<polygon id="triangle36_16_" opacity="0.12" fill="#050505" points="311.5,337 317.5,322 277.5,325 "/>
<polygon id="triangle36_17_" opacity="0.07" fill="#050505" points="175.5,361 203.5,382 179.5,444 "/>
<polygon id="triangle36_19_" opacity="0.07" fill="#050505" points="82.5,400 175.5,361 179.5,444 "/>
<polygon id="triangle36_20_" opacity="0.09" fill="#050505" points="112.5,102 122.5,115 190.5,51 "/>
<polygon id="triangle36_21_" opacity="0.09" fill="#050505" points="122.5,115 182.5,125 190.5,51 "/>
<polygon id="triangle36_22_" opacity="0.12" fill="#050505" points="130.5,238 183.5,130 117.5,137 "/>
<polygon id="triangle36_23_" opacity="0.13" fill="#050505" points="182.5,125 183.5,130 117.5,137 "/>
<polygon id="triangle36_24_" opacity="0.08" fill="#050505" points="50.5,209 130.5,238 117.5,137 "/>
<polygon id="triangle36_27_" opacity="0.14" fill="#050505" points="112.5,102 122.5,115 117.5,137 "/>
<polygon id="triangle36_28_" opacity="0.09" fill="#050505" points="122.5,115 182.5,125 117.5,137 "/>
<polygon id="triangle36_29_" opacity="0.09" fill="#050505" points="130.5,238 175.5,361 246.5,338 "/>
<polygon id="triangle36_30_" opacity="0.1" fill="#050505" points="130.5,238 277.5,325 246.5,338 "/>
<polygon id="triangle36_31_" opacity="0.12" fill="#050505" points="203.5,382 311.5,337 246.5,338 "/>
<polygon id="triangle36_32_" opacity="0.13" fill="#050505" points="277.5,325 311.5,337 246.5,338 "/>
<polygon id="triangle36_33_" opacity="0.13" fill="#050505" points="175.5,361 203.5,382 196.5,367 "/>
<polygon id="triangle36_34_" opacity="0.13" fill="#050505" points="175.5,361 246.5,338 196.5,367 "/>
<polygon id="triangle36_35_" opacity="0.12" fill="#050505" points="203.5,382 246.5,338 196.5,367 "/>
<polygon id="triangle36_36_" opacity="0.09" fill="#050505" points="276.5,137 317.5,322 378.5,287 "/>
<polygon id="triangle36_37_" opacity="0.09" fill="#050505" points="419.5,170 478.5,241 378.5,287 "/>
<polygon id="triangle36_38_" opacity="0.14" fill="#050505" points="438.5,389 479.5,296 378.5,287 "/>
<polygon id="triangle36_39_" opacity="0.15" fill="#050505" points="470.5,270 478.5,241 378.5,287 "/>
<polygon id="triangle36_40_" opacity="0.12" fill="#050505" points="470.5,270 479.5,296 378.5,287 "/>
<polygon id="triangle36_41_" opacity="0.1" fill="#050505" points="179.5,444 203.5,382 391.5,442 "/>
<polygon id="triangle36_42_" opacity="0.13" fill="#050505" points="203.5,382 311.5,337 391.5,442 "/>
<polygon id="triangle36_45_" opacity="0.15" fill="#050505" points="276.5,137 378.5,287 372.5,130 "/>
<polygon id="triangle36_46_" opacity="0.15" fill="#050505" points="378.5,287 419.5,170 372.5,130 "/>
<polygon id="triangle36_47_" opacity="0.14" fill="#050505" points="276.5,137 372.5,130 367.5,115 "/>
<polygon id="triangle36_48_" opacity="0.11" fill="#050505" points="190.5,51 248.5,62 289.5,34 "/>
<polygon id="triangle36_49_" opacity="0.08" fill="#050505" points="248.5,62 276.5,137 289.5,34 "/>
<polygon id="triangle36_50_" opacity="0.11" fill="#050505" points="276.5,137 367.5,115 289.5,34 "/>
<path id="triangle36_10_" fill="#050505" d="M524.5,211"/>
<polygon id="triangle36_63_" opacity="0.07" fill="#050505" points="130.5,238 175.5,361 84.5,354 "/>
<polygon id="triangle36_64_" opacity="0.13" fill="#050505" points="43.5,378 50.5,209 84.5,354 "/>
<polygon id="triangle36_65_" opacity="0.1" fill="#050505" points="43.5,378 82.5,400 84.5,354 "/>
<polygon id="triangle36_66_" opacity="0.1" fill="#050505" points="50.5,209 130.5,238 84.5,354 "/>
<polygon id="triangle36_67_" opacity="0.08" fill="#050505" points="82.5,400 175.5,361 84.5,354 "/>
<polygon id="triangle36_72_" opacity="0.13" fill="#050505" points="311.5,337 317.5,322 421.5,404 "/>
<polygon id="triangle36_73_" opacity="0.14" fill="#050505" points="311.5,337 391.5,442 421.5,404 "/>
<polygon id="triangle36_74_" opacity="0.09" fill="#050505" points="317.5,322 378.5,287 421.5,404 "/>
<polygon id="triangle36_75_" opacity="0.14" fill="#050505" points="378.5,287 438.5,389 421.5,404 "/>
<path id="triangle36_11_" fill="#050505" d="M524.5,211"/>
<polygon id="triangle36_84_" opacity="0.08" fill="#050505" points="182.5,125 183.5,130 215.5,93 "/>
<polygon id="triangle36_85_" opacity="0.1" fill="#050505" points="182.5,125 190.5,51 215.5,93 "/>
<polygon id="triangle36_86_" opacity="0.15" fill="#050505" points="183.5,130 241.5,116 215.5,93 "/>
<polygon id="triangle36_87_" opacity="0.1" fill="#050505" points="190.5,51 248.5,62 215.5,93 "/>
<polygon id="triangle36_88_" opacity="0.12" fill="#050505" points="241.5,116 248.5,62 215.5,93 "/>
</svg>
