<?xml version="1.0" encoding="utf-8"?>
<!-- Generator: Adobe Illustrator 15.0.0, SVG Export Plug-In . SVG Version: 6.00 Build 0)  -->
<!DOCTYPE svg PUBLIC "-//W3C//DTD SVG 1.1//EN" "http://www.w3.org/Graphics/SVG/1.1/DTD/svg11.dtd">
<svg version="1.1" id="Layer_1" xmlns="http://www.w3.org/2000/svg" xmlns:xlink="http://www.w3.org/1999/xlink" x="0px" y="0px"
	 width="479.077px" height="205.849px" viewBox="0 0 479.077 205.849" enable-background="new 0 0 479.077 205.849"
	 xml:space="preserve">
<g>
	<polygon id="triangle36_3_" opacity="0.08" fill="#050505" points="142.234,117.271 142.448,118.343 149.316,110.403 	"/>
	<polygon id="triangle36_85_" opacity="0.1" fill="#050505" points="142.234,117.271 143.951,101.389 149.316,110.403 	"/>
	<polygon id="triangle36_86_" opacity="0.15" fill="#050505" points="142.448,118.343 154.896,115.338 149.316,110.403 	"/>
	<polygon id="triangle36_87_" opacity="0.1" fill="#050505" points="143.951,101.389 156.398,103.75 149.316,110.403 	"/>
	<polygon id="triangle36_88_" opacity="0.12" fill="#050505" points="154.896,115.338 156.398,103.75 149.316,110.403 	"/>
</g>
<g>
	<polygon id="triangle36_109_" opacity="0.08" fill="#050505" points="392.197,89.659 392.344,90.393 397.04,84.963 	"/>
	<polygon id="triangle36_108_" opacity="0.1" fill="#050505" points="392.197,89.659 393.371,78.799 397.04,84.963 	"/>
	<polygon id="triangle36_107_" opacity="0.15" fill="#050505" points="392.344,90.393 400.855,88.338 397.04,84.963 	"/>
	<polygon id="triangle36_106_" opacity="0.1" fill="#050505" points="393.371,78.799 401.883,80.413 397.04,84.963 	"/>
	<polygon id="triangle36_105_" opacity="0.12" fill="#050505" points="400.855,88.338 401.883,80.413 397.04,84.963 	"/>
</g>
<g>
	<polygon id="triangle36_94_" opacity="0.08" fill="#050505" points="331.229,173.213 331.444,174.286 338.312,166.345 	"/>
	<polygon id="triangle36_93_" opacity="0.1" fill="#050505" points="331.229,173.213 332.946,157.332 338.312,166.345 	"/>
	<polygon id="triangle36_92_" opacity="0.15" fill="#050505" points="331.444,174.286 343.892,171.281 338.312,166.345 	"/>
	<polygon id="triangle36_91_" opacity="0.1" fill="#050505" points="332.946,157.332 345.394,159.692 338.312,166.345 	"/>
	<polygon id="triangle36_90_" opacity="0.12" fill="#050505" points="343.892,171.281 345.394,159.692 338.312,166.345 	"/>
</g>
<g>
	<polygon id="triangle36_119_" opacity="0.07" points="109.684,80.776 103.329,74.322 102.301,92.672 	"/>
	<polygon id="triangle36_118_" opacity="0.07" points="109.684,80.776 103.329,74.322 113.922,76.335 	"/>
	<polygon id="triangle36_117_" opacity="0.12" points="102.301,92.672 109.684,80.776 112.419,88.112 	"/>
	<polygon id="triangle36_116_" opacity="0.07" points="109.684,80.776 113.922,76.335 120.048,87.57 	"/>
	<polygon id="triangle36_115_" opacity="0.13" points="112.419,88.112 109.684,80.776 120.048,87.57 	"/>
</g>
<g>
	<polygon id="triangle36_99_" opacity="0.07" points="359.731,91.949 358.041,90.233 357.768,95.112 	"/>
	<polygon id="triangle36_98_" opacity="0.07" points="359.731,91.949 358.041,90.233 360.858,90.768 	"/>
	<polygon id="triangle36_97_" opacity="0.12" points="357.768,95.112 359.731,91.949 360.458,93.899 	"/>
	<polygon id="triangle36_96_" opacity="0.07" points="359.731,91.949 360.858,90.768 362.486,93.755 	"/>
	<polygon id="triangle36_95_" opacity="0.13" points="360.458,93.899 359.731,91.949 362.486,93.755 	"/>
</g>
<g>
	<polygon id="triangle36_11_" opacity="0.07" points="48.313,117.829 55.986,122.737 52.894,104.513 	"/>
	<polygon id="triangle36_10_" opacity="0.07" points="48.313,117.829 55.986,122.737 45.149,123.13 	"/>
	<polygon id="triangle36_9_" opacity="0.12" points="52.894,104.513 48.313,117.829 43.991,111.246 	"/>
	<polygon id="triangle36_8_" opacity="0.07" points="48.313,117.829 45.149,123.13 36.632,113.483 	"/>
	<polygon id="triangle36_7_" opacity="0.13" points="43.991,111.246 48.313,117.829 36.632,113.483 	"/>
</g>
<g>
	<polygon id="triangle36_104_" opacity="0.07" points="427.718,172.816 430.809,174.793 429.563,167.454 	"/>
	<polygon id="triangle36_103_" opacity="0.07" points="427.718,172.816 430.809,174.793 426.444,174.952 	"/>
	<polygon id="triangle36_102_" opacity="0.12" points="429.563,167.454 427.718,172.816 425.979,170.166 	"/>
	<polygon id="triangle36_101_" opacity="0.07" points="427.718,172.816 426.444,174.952 423.015,171.066 	"/>
	<polygon id="triangle36_100_" opacity="0.13" points="425.979,170.166 427.718,172.816 423.015,171.066 	"/>
</g>
<g>
	<polygon id="triangle36_61_" opacity="0.07" points="229.354,57.417 236.745,62.145 233.767,44.594 	"/>
	<polygon id="triangle36_59_" opacity="0.07" points="229.354,57.417 236.745,62.145 226.308,62.523 	"/>
	<polygon id="triangle36_46_" opacity="0.12" points="233.767,44.594 229.354,57.417 225.193,51.078 	"/>
	<polygon id="triangle36_34_" opacity="0.07" points="229.354,57.417 226.308,62.523 218.105,53.232 	"/>
	<polygon id="triangle36_33_" opacity="0.13" points="225.193,51.078 229.354,57.417 218.105,53.232 	"/>
</g>
<g>
	<polygon id="triangle36_89_" opacity="0.07" points="405.834,127.689 409.986,130.346 408.313,120.484 	"/>
	<polygon id="triangle36_83_" opacity="0.07" points="405.834,127.689 409.986,130.346 404.122,130.558 	"/>
	<polygon id="triangle36_81_" opacity="0.12" points="408.313,120.484 405.834,127.689 403.495,124.127 	"/>
	<polygon id="triangle36_80_" opacity="0.07" points="405.834,127.689 404.122,130.558 399.513,125.338 	"/>
	<polygon id="triangle36_79_" opacity="0.13" points="403.495,124.127 405.834,127.689 399.513,125.338 	"/>
</g>
<g>
	<polygon id="triangle36_122_" opacity="0.08" fill="#050505" points="97.588,138.761 105.46,136.911 99.177,129.55 	"/>
	<polygon id="triangle36_121_" opacity="0.13" fill="#050505" points="105.814,152.572 97.588,138.761 107.829,148.531 	"/>
	<polygon id="triangle36_120_" opacity="0.1" fill="#050505" points="97.588,138.761 105.46,136.911 107.829,148.531 	"/>
</g>
<g>
	<polygon id="triangle36_124_" opacity="0.09" fill="#050505" points="267.367,117.118 273.431,124.416 263.153,129.143 	"/>
	<polygon id="triangle36_123_" opacity="0.15" fill="#050505" points="272.608,127.396 273.431,124.416 263.153,129.143 	"/>
</g>
<g>
	<polygon id="triangle36_130_" opacity="0.07" points="160.052,186.019 165.96,192.151 156.023,190.149 	"/>
	<polygon id="triangle36_129_" opacity="0.14" points="146.836,190.187 154.827,195.304 156.023,190.149 	"/>
	<polygon id="triangle36_128_" opacity="0.09" points="154.827,195.304 165.96,192.151 156.023,190.149 	"/>
	<polygon id="triangle36_127_" opacity="0.07" points="160.052,186.019 156.023,190.149 150.38,179.526 	"/>
	<polygon id="triangle36_126_" opacity="0.09" points="146.836,190.187 156.023,190.149 150.38,179.526 	"/>
</g>
<g>
	<polygon id="triangle36_6_" opacity="0.08" fill="#050505" points="287.224,92.202 288.253,92.599 283.12,85.005 	"/>
	<polygon id="triangle36_5_" opacity="0.1" fill="#050505" points="287.224,92.202 273.431,83.636 283.12,85.005 	"/>
	<polygon id="triangle36_4_" opacity="0.15" fill="#050505" points="288.253,92.599 289.202,84.3 283.12,85.005 	"/>
	<polygon id="triangle36_2_" opacity="0.1" fill="#050505" points="273.431,83.636 279.209,77.912 283.12,85.005 	"/>
	<polygon id="triangle36_1_" opacity="0.12" fill="#050505" points="289.202,84.3 279.209,77.912 283.12,85.005 	"/>
</g>
<g>
	<polygon id="triangle36_78_" opacity="0.08" fill="#050505" points="259.836,176.572 259.62,175.781 254.896,182.074 	"/>
	<polygon id="triangle36_71_" opacity="0.1" fill="#050505" points="259.836,176.572 259.373,188.536 254.896,182.074 	"/>
	<polygon id="triangle36_70_" opacity="0.15" fill="#050505" points="259.62,175.781 250.468,178.671 254.896,182.074 	"/>
	<polygon id="triangle36_69_" opacity="0.1" fill="#050505" points="259.373,188.536 249.943,187.415 254.896,182.074 	"/>
	<polygon id="triangle36_64_" opacity="0.12" fill="#050505" points="250.468,178.671 249.943,187.415 254.896,182.074 	"/>
</g>
</svg>
