<?xml version="1.0" encoding="utf-8"?>
<!-- Generator: Adobe Illustrator 15.0.0, SVG Export Plug-In . SVG Version: 6.00 Build 0)  -->
<!DOCTYPE svg PUBLIC "-//W3C//DTD SVG 1.1//EN" "http://www.w3.org/Graphics/SVG/1.1/DTD/svg11.dtd">
<svg version="1.1" id="Layer_1" xmlns="http://www.w3.org/2000/svg" xmlns:xlink="http://www.w3.org/1999/xlink" x="0px" y="0px"
	 width="590.292px" height="122.143px" viewBox="-38.814 417.517 590.292 122.143"
	 enable-background="new -38.814 417.517 590.292 122.143" xml:space="preserve">
<path id="triangle36_17_" opacity="0.11" d="M-38.814,505.517"/>
<line id="triangle36_119_" opacity="0.05" x1="420.074" y1="459.412" x2="484.387" y2="468.605"/>
<polygon id="triangle36_13_" opacity="0.12" points="484.387,468.605 420.074,459.412 470.283,489.06 "/>
<path id="triangle36_125_" opacity="0.09" d="M290.805,518.689"/>
<path id="triangle36_124_" opacity="0.07" d="M290.805,518.689"/>
<polygon id="triangle36_24_" opacity="0.05" points="195.506,432.395 161.358,459.265 155.911,423.911 "/>
<line id="triangle36_63_" opacity="0.07" x1="155.911" y1="423.911" x2="195.506" y2="432.395"/>
<polygon id="triangle36_33_" opacity="0.09" points="456.979,510.42 420.074,459.412 469.271,491.558 "/>
<polygon id="triangle36_34_" opacity="0.12" points="470.283,489.06 420.074,459.412 469.271,491.558 "/>
<path id="triangle36_54_" opacity="0.11" d="M155.911,423.911"/>
<path id="triangle36_123_" opacity="0.07" d="M122.712,530.253"/>
<line id="triangle36_122_" opacity="0.05" x1="129.408" y1="532.385" x2="122.712" y2="530.253"/>
<polygon id="triangle36_44_" opacity="0.1" points="165.838,509.927 129.408,532.385 122.712,530.253 "/>
<path id="triangle36_99_" opacity="0.1" d="M155.911,423.911"/>
<path id="triangle36_1_" opacity="0.12" d="M-38.814,505.517"/>
<path id="triangle36_118_" opacity="0.05" d="M129.408,532.385"/>
<line id="triangle36_116_" opacity="0.09" x1="165.838" y1="509.927" x2="129.408" y2="532.385"/>
<path id="triangle36_108_" opacity="0.05" d="M346.633,500.02"/>
<line id="triangle36_107_" opacity="0.1" x1="290.805" y1="518.689" x2="346.633" y2="500.02"/>
<polygon id="triangle36_100_" opacity="0.12" points="165.838,509.927 122.712,530.253 166.655,483.51 "/>
<polygon id="triangle36_106_" opacity="0.06" points="161.358,459.265 155.911,423.911 135.822,417.517 "/>
<line id="triangle36_93_" opacity="0.11" x1="135.822" y1="417.517" x2="155.911" y2="423.911"/>
<path id="triangle36_92_" opacity="0.06" d="M135.822,417.517"/>
<polygon id="triangle36_110_" opacity="0.06" points="122.712,530.253 166.655,483.51 158.538,463.356 "/>
<polygon id="triangle36_111_" opacity="0.12" points="122.712,530.253 90.737,428.327 158.538,463.356 "/>
<polygon id="triangle36_112_" opacity="0.06" points="161.358,459.265 135.822,417.517 158.538,463.356 "/>
<polygon id="triangle36_113_" opacity="0.08" points="135.822,417.517 90.737,428.327 158.538,463.356 "/>
<polygon id="triangle36_115_" opacity="0.06" points="420.074,459.412 382.588,471.557 376.969,452.415 "/>
<line id="triangle36_84_" opacity="0.09" x1="376.969" y1="452.415" x2="420.074" y2="459.412"/>
<polygon id="triangle36_117_" opacity="0.11" points="382.588,471.557 374.881,471.923 376.969,452.415 "/>
<path id="triangle36_83_" opacity="0.09" d="M376.969,452.415"/>
<path id="triangle36_53_" opacity="0.1" d="M195.506,432.395"/>
<line id="triangle36_104_" opacity="0.05" x1="212.495" y1="528.249" x2="290.805" y2="518.689"/>
<path id="triangle36_103_" opacity="0.07" d="M212.495,528.249"/>
<line id="triangle36_102_" opacity="0.1" x1="165.838" y1="509.927" x2="212.495" y2="528.249"/>
<polygon id="triangle36_159_" opacity="0.07" points="346.633,500.02 374.881,471.923 311.365,463.635 "/>
<polygon id="triangle36_160_" opacity="0.05" points="346.633,500.02 290.805,518.689 311.365,463.635 "/>
<polygon id="triangle36_161_" opacity="0.12" points="374.881,471.923 376.969,452.415 311.365,463.635 "/>
<line id="triangle36_82_" opacity="0.09" x1="311.365" y1="463.635" x2="376.969" y2="452.415"/>
<path id="triangle36_101_" opacity="0.06" d="M392.795,539.659"/>
<path id="triangle36_98_" opacity="0.06" d="M392.795,539.659"/>
<path id="triangle36_97_" opacity="0.11" d="M392.795,539.659"/>
<line id="triangle36_94_" opacity="0.05" x1="346.633" y1="500.02" x2="392.795" y2="539.659"/>
<path id="triangle36_91_" opacity="0.07" d="M72.265,531.33"/>
<line id="triangle36_90_" opacity="0.12" x1="122.712" y1="530.253" x2="72.265" y2="531.33"/>
<polygon id="triangle36_178_" opacity="0.05" points="122.712,530.253 90.737,428.327 72.265,531.33 "/>
<line id="triangle36_81_" opacity="0.06" x1="551.479" y1="528.353" x2="484.387" y2="468.605"/>
<path id="triangle36_73_" opacity="0.08" d="M484.387,468.605"/>
<path id="triangle36_72_" opacity="0.05" d="M376.969,452.415"/>
<path id="triangle36_71_" opacity="0.09" d="M376.969,452.415"/>
<polygon id="triangle36_218_" opacity="0.11" points="72.265,531.33 90.737,428.327 3.688,468.072 "/>
<line id="triangle36_15_" opacity="0.1" x1="3.688" y1="468.072" x2="-38.814" y2="505.517"/>
<path id="triangle36_4_" opacity="0.05" d="M3.688,468.072"/>
<line id="triangle36_76_" opacity="0.12" x1="72.265" y1="531.33" x2="7.522" y2="528.94"/>
<path id="triangle36_75_" opacity="0.09" d="M7.522,528.94"/>
<polygon id="triangle36_234_" opacity="0.1" points="72.265,531.33 3.688,468.072 7.522,528.94 "/>
<path id="triangle36_74_" opacity="0.07" d="M7.522,528.94"/>
<line id="triangle36_69_" opacity="0.1" x1="-38.814" y1="505.517" x2="7.522" y2="528.94"/>
<polygon id="triangle36_237_" opacity="0.11" points="3.688,468.072 -38.814,505.517 7.522,528.94 "/>
<polygon id="triangle36_238_" opacity="0.07" points="290.805,518.689 311.365,463.635 261.047,435.687 "/>
<polygon id="triangle36_239_" opacity="0.12" points="290.805,518.689 212.495,528.249 261.047,435.687 "/>
<line id="triangle36_70_" opacity="0.1" x1="261.047" y1="435.687" x2="311.365" y2="463.635"/>
<path id="triangle36_16_" opacity="0.1" d="M261.047,435.687"/>
<path id="triangle36_52_" opacity="0.06" d="M261.047,435.687"/>
<line id="triangle36_41_" opacity="0.08" x1="195.506" y1="432.395" x2="261.047" y2="435.687"/>
<line id="triangle36_11_" opacity="0.07" x1="135.822" y1="417.517" x2="90.737" y2="428.327"/>
<path id="triangle36_10_" opacity="0.12" d="M135.822,417.517"/>
<line id="triangle36_8_" opacity="0.05" x1="90.737" y1="428.327" x2="3.688" y2="468.072"/>
<path id="triangle36_7_" opacity="0.11" d="M3.688,468.072"/>
<polygon id="triangle36_258_" opacity="0.06" points="212.495,528.249 261.047,435.687 174.47,481.441 "/>
<polygon id="triangle36_259_" opacity="0.09" points="212.495,528.249 165.838,509.927 174.47,481.441 "/>
<polygon id="triangle36_260_" opacity="0.07" points="261.047,435.687 195.506,432.395 174.47,481.441 "/>
<polygon id="triangle36_261_" opacity="0.06" points="165.838,509.927 166.655,483.51 174.47,481.441 "/>
<polygon id="triangle36_262_" opacity="0.1" points="166.655,483.51 158.538,463.356 174.47,481.441 "/>
<polygon id="triangle36_263_" opacity="0.12" points="195.506,432.395 161.358,459.265 174.47,481.441 "/>
<polygon id="triangle36_264_" opacity="0.07" points="158.538,463.356 161.358,459.265 174.47,481.441 "/>
<line id="triangle36_66_" opacity="0.06" x1="456.979" y1="510.42" x2="397.703" y2="516.061"/>
<line id="triangle36_65_" opacity="0.07" x1="392.795" y1="539.659" x2="397.703" y2="516.061"/>
<polygon id="triangle36_267_" opacity="0.1" points="456.979,510.42 420.074,459.412 397.703,516.061 "/>
<polygon id="triangle36_268_" opacity="0.07" points="392.795,539.659 346.633,500.02 397.703,516.061 "/>
<polygon id="triangle36_269_" opacity="0.11" points="420.074,459.412 382.588,471.557 397.703,516.061 "/>
<polygon id="triangle36_270_" opacity="0.06" points="382.588,471.557 374.881,471.923 397.703,516.061 "/>
<polygon id="triangle36_271_" opacity="0.06" points="346.633,500.02 374.881,471.923 397.703,516.061 "/>
<polygon id="triangle36_276_" opacity="0.09" points="551.479,528.353 484.387,468.605 491.084,538.194 "/>
<line id="triangle36_47_" opacity="0.1" x1="456.979" y1="510.42" x2="491.084" y2="538.194"/>
<polygon id="triangle36_278_" opacity="0.06" points="456.979,510.42 469.271,491.558 491.084,538.194 "/>
<polygon id="triangle36_279_" opacity="0.06" points="469.271,491.558 470.283,489.06 491.084,538.194 "/>
<polygon id="triangle36_280_" opacity="0.08" points="470.283,489.06 484.387,468.605 491.084,538.194 "/>
<line id="triangle36_27_" opacity="0.12" x1="551.479" y1="528.353" x2="491.084" y2="538.194"/>
<path id="triangle36_18_" opacity="0.05" d="M491.084,538.194"/>
<path id="triangle36_9_" opacity="0.07" d="M491.084,538.194"/>
</svg>
