<?xml version="1.0" encoding="utf-8"?>
<!-- Generator: Adobe Illustrator 15.0.0, SVG Export Plug-In . SVG Version: 6.00 Build 0)  -->
<!DOCTYPE svg PUBLIC "-//W3C//DTD SVG 1.1//EN" "http://www.w3.org/Graphics/SVG/1.1/DTD/svg11.dtd">
<svg version="1.1" id="Layer_1" xmlns="http://www.w3.org/2000/svg" xmlns:xlink="http://www.w3.org/1999/xlink" x="0px" y="0px"
	 width="500px" height="500px" viewBox="0 0 500 500" enable-background="new 0 0 500 500" xml:space="preserve">
<polygon id="triangle36_136_" opacity="0.07" points="58.64,183.757 158.168,95.938 172.219,196.637 "/>
<polygon id="triangle36_135_" opacity="0.02" points="172.219,196.637 189.783,396.865 282.286,237.62 "/>
<polygon id="triangle36_133_" opacity="0.04" points="174.561,462.437 189.783,396.865 149.972,417.941 "/>
<polygon id="triangle36_132_" opacity="0.03" points="189.783,396.865 282.286,237.62 318.584,362.908 "/>
<polygon id="triangle36_125_" opacity="0.03" points="305.704,44.418 347.857,79.545 358.396,42.076 "/>
<polygon id="triangle36_124_" opacity="0.03" points="347.857,79.545 428.65,105.306 358.396,42.076 "/>
<polygon id="triangle36_115_" opacity="0.04" points="149.972,417.941 189.783,396.865 45.76,316.071 "/>
<polygon id="triangle36_114_" opacity="0.06" points="172.219,196.637 189.783,396.865 45.76,316.071 "/>
<polygon id="triangle36_112_" opacity="0.02" points="58.64,183.757 172.219,196.637 45.76,316.071 "/>
<polygon id="triangle36_109_" opacity="0.05" points="318.584,362.908 419.283,360.566 429.821,389.839 "/>
<polygon id="triangle36_99_" opacity="0.08" points="174.561,462.437 189.783,396.865 322.097,437.847 "/>
<polygon id="triangle36_97_" opacity="0.03" points="189.783,396.865 318.584,362.908 322.097,437.847 "/>
<polygon id="triangle36_96_" opacity="0.03" points="318.584,362.908 429.821,389.839 322.097,437.847 "/>
<polygon id="triangle36_94_" opacity="0.04" points="282.286,237.62 318.584,362.908 375.959,264.551 "/>
<polygon id="triangle36_93_" opacity="0.06" points="318.584,362.908 419.283,360.566 375.959,264.551 "/>
<polygon id="triangle36_92_" opacity="0.03" points="419.283,360.566 445.043,309.046 375.959,264.551 "/>
<polygon id="triangle36_59_" opacity="0.08" points="375.959,264.551 398.207,186.099 463.778,270.405 "/>
<polygon id="triangle36_61_" opacity="0.07" points="375.959,264.551 445.043,309.046 463.778,270.405 "/>
<polygon id="triangle36_46_" opacity="0.06" points="398.207,186.099 479,202.492 463.778,270.405 "/>
<polygon id="triangle36_26_" opacity="0.05" points="347.857,79.545 398.207,186.099 422.796,160.339 "/>
<polygon id="triangle36_21_" opacity="0.08" points="347.857,79.545 428.65,105.306 422.796,160.339 "/>
<polygon id="triangle36_69_" opacity="0.03" points="398.207,186.099 479,202.492 422.796,160.339 "/>
<polygon id="triangle36_70_" opacity="0.07" points="428.65,105.306 479,202.492 422.796,160.339 "/>
<polygon id="triangle36_17_" opacity="0.06" points="158.168,95.938 172.219,196.637 288.141,180.244 "/>
<polygon id="triangle36_15_" opacity="0.08" points="158.168,95.938 293.995,38.563 288.141,180.244 "/>
<polygon id="triangle36_8_" opacity="0.07" points="172.219,196.637 282.286,237.62 288.141,180.244 "/>
<polygon id="triangle36_7_" opacity="0.04" points="282.286,237.62 375.959,264.551 288.141,180.244 "/>
<polygon id="triangle36_78_" opacity="0.08" points="293.995,38.563 305.704,44.418 288.141,180.244 "/>
<polygon id="triangle36_79_" opacity="0.06" points="305.704,44.418 347.857,79.545 288.141,180.244 "/>
<polygon id="triangle36_80_" opacity="0.03" points="347.857,79.545 398.207,186.099 288.141,180.244 "/>
<polygon id="triangle36_81_" opacity="0.04" points="375.959,264.551 398.207,186.099 288.141,180.244 "/>
<polygon id="triangle36_6_" opacity="0.03" points="419.283,360.566 429.821,389.839 455.582,355.883 "/>
<polygon id="triangle36_83_" opacity="0.04" points="419.283,360.566 445.043,309.046 455.582,355.883 "/>
</svg>
