<?xml version="1.0" encoding="utf-8"?>
<!-- Generator: Adobe Illustrator 15.0.0, SVG Export Plug-In . SVG Version: 6.00 Build 0)  -->
<!DOCTYPE svg PUBLIC "-//W3C//DTD SVG 1.1//EN" "http://www.w3.org/Graphics/SVG/1.1/DTD/svg11.dtd">
<svg version="1.1" id="Layer_1" xmlns="http://www.w3.org/2000/svg" xmlns:xlink="http://www.w3.org/1999/xlink" x="0px" y="0px"
	 width="500px" height="500px" viewBox="0 0 500 500" enable-background="new 0 0 500 500" xml:space="preserve">
<polygon id="triangle36" opacity="0.13" points="154,120 184,240 237,186 "/>
<polygon id="triangle36_1_" opacity="0.14" points="421,376 430,424 482,368 "/>
<polygon id="triangle36_2_" opacity="0.09" points="421,376 494,279 482,368 "/>
<polygon id="triangle36_4_" opacity="0.15" points="152,60 154,120 115,55 "/>
<polygon id="triangle36_5_" opacity="0.07" points="285,27 358,25 348,117 "/>
<polygon id="triangle36_9_" opacity="0.1" points="421,376 430,424 334,384 "/>
<polygon id="triangle36_10_" opacity="0.12" points="122,387 182,336 182,479 "/>
<polygon id="triangle36_11_" opacity="0.07" points="121,272 184,240 50,189 "/>
<polygon id="triangle36_12_" opacity="0.08" points="154,120 184,240 50,189 "/>
<polygon id="triangle36_13_" opacity="0.1" points="421,376 494,279 346,218 "/>
<polygon id="triangle36_14_" opacity="0.15" points="285,27 358,25 268,3 "/>
<polygon id="triangle36_16_" opacity="0.11" points="348,117 358,25 390,73 "/>
<polygon id="triangle36_19_" opacity="0.07" points="278,161 348,117 346,204 "/>
<polygon id="triangle36_22_" opacity="0.14" points="346,218 346,204 460,156 "/>
<polygon id="triangle36_23_" opacity="0.08" points="346,204 348,117 460,156 "/>
<polygon id="triangle36_24_" opacity="0.1" points="346,218 494,279 460,156 "/>
<polygon id="triangle36_25_" opacity="0.07" points="348,117 447,121 460,156 "/>
<polygon id="triangle36_28_" opacity="0.12" points="152,60 154,120 221,97 "/>
<polygon id="triangle36_29_" opacity="0.12" points="152,60 204,28 221,97 "/>
<polygon id="triangle36_30_" opacity="0.11" points="154,120 237,186 221,97 "/>
<polygon id="triangle36_31_" opacity="0.1" points="237,186 265,176 221,97 "/>
<polygon id="triangle36_32_" opacity="0.15" points="265,176 278,161 221,97 "/>
<polygon id="triangle36_35_" opacity="0.07" points="121,272 184,240 144,314 "/>
<polygon id="triangle36_36_" opacity="0.14" points="122,387 182,336 144,314 "/>
<polygon id="triangle36_37_" opacity="0.09" points="182,336 184,240 144,314 "/>
<polygon id="triangle36_38_" opacity="0.13" points="182,336 182,479 312,398 "/>
<polygon id="triangle36_39_" opacity="0.13" points="334,384 430,424 312,398 "/>
<polygon id="triangle36_40_" opacity="0.1" points="265,176 278,161 341,215 "/>
<polygon id="triangle36_41_" opacity="0.12" points="278,161 346,204 341,215 "/>
<polygon id="triangle36_42_" opacity="0.15" points="346,204 346,218 341,215 "/>
<polygon id="triangle36_43_" opacity="0.11" points="348,117 390,73 412,91 "/>
<polygon id="triangle36_44_" opacity="0.12" points="348,117 447,121 412,91 "/>
<polygon id="triangle36_45_" opacity="0.13" points="115,55 154,120 87,93 "/>
<polygon id="triangle36_47_" opacity="0.08" points="182,336 184,240 295,300 "/>
<polygon id="triangle36_48_" opacity="0.14" points="182,336 312,398 295,300 "/>
<polygon id="triangle36_49_" opacity="0.15" points="184,240 237,186 295,300 "/>
<polygon id="triangle36_50_" opacity="0.14" points="237,186 265,176 295,300 "/>
<polygon id="triangle36_51_" opacity="0.14" points="265,176 341,215 295,300 "/>
<polygon id="triangle36_52_" opacity="0.11" points="312,398 334,384 295,300 "/>
<polygon id="triangle36_53_" opacity="0.11" points="334,384 421,376 295,300 "/>
<polygon id="triangle36_54_" opacity="0.1" points="341,215 346,218 295,300 "/>
<polygon id="triangle36_55_" opacity="0.11" points="346,218 421,376 295,300 "/>
<polygon id="triangle36_56_" opacity="0.1" points="23,295 23,228 60,275 "/>
<polygon id="triangle36_57_" opacity="0.15" points="23,228 50,189 60,275 "/>
<polygon id="triangle36_58_" opacity="0.12" points="50,189 121,272 60,275 "/>
<polygon id="triangle36_60_" opacity="0.14" points="23,228 50,189 54,134 "/>
<polygon id="triangle36_62_" opacity="0.1" points="50,189 154,120 54,134 "/>
<polygon id="triangle36_63_" opacity="0.13" points="87,93 154,120 54,134 "/>
<polygon id="triangle36_65_" opacity="0.07" points="121,272 144,314 46,333 "/>
<polygon id="triangle36_66_" opacity="0.09" points="122,387 144,314 46,333 "/>
<polygon id="triangle36_67_" opacity="0.07" points="23,295 60,275 46,333 "/>
<polygon id="triangle36_68_" opacity="0.13" points="60,275 121,272 46,333 "/>
<polygon id="triangle36_72_" opacity="0.09" points="204,28 221,97 263,51 "/>
<polygon id="triangle36_73_" opacity="0.11" points="204,28 268,3 263,51 "/>
<polygon id="triangle36_74_" opacity="0.08" points="221,97 278,161 263,51 "/>
<polygon id="triangle36_75_" opacity="0.1" points="268,3 285,27 263,51 "/>
<polygon id="triangle36_76_" opacity="0.11" points="278,161 348,117 263,51 "/>
<polygon id="triangle36_77_" opacity="0.12" points="285,27 348,117 263,51 "/>
<polygon id="triangle36_82_" opacity="0.09" points="390,73 412,91 415,83 "/>
<polygon id="triangle36_84_" opacity="0.13" points="412,91 447,121 415,83 "/>
</svg>
