<svg xmlns="http://www.w3.org/2000/svg" width="512" height="512" viewBox="0 0 512 512"><path d="M297.466 232.36l23.508-35.26c6.012-9.013 18.193-11.451 27.207-5.439 9.016 6.009 11.451 18.192 5.443 27.205l-23.508 35.26c-6.01 9.016-18.193 11.453-27.207 5.444-9.015-6.012-11.455-18.194-5.443-27.21zm-32.301-11.732c9.029 6.021 21.232 3.58 27.252-5.45l23.74-35.605c6.02-9.032 3.578-21.234-5.455-27.258-9.027-6.02-21.232-3.579-27.25 5.452l-23.738 35.607c-6.022 9.029-3.582 21.231 5.451 27.254zm120.299 67.778l-20.795 31.189c-5.531 8.296-3.289 19.504 5.006 25.034 8.295 5.532 19.502 3.29 25.035-5.005l20.793-31.193c5.533-8.295 3.291-19.505-5.008-25.033-8.295-5.531-19.502-3.289-25.031 5.008zm-52.721-14.413c-5.99 8.987-3.564 21.131 5.426 27.12 8.988 5.993 21.129 3.563 27.121-5.426l22.527-33.791c5.994-8.986 3.564-21.13-5.426-27.123-8.986-5.99-21.129-3.563-27.119 5.426l-22.529 33.794zm108.348 158.172c-15.982 15.983-41.896 15.983-57.879 0l-102.699-104.793c18.676-20.651 9.6-56.29-20.289-61.598l-52.777-9.375-18.157-18.158c-10.297-10.298-24.485-15.73-39.026-14.955-23.71 1.263-47.836-7.156-65.945-25.266-24.266-24.265-31.137-59.329-20.629-89.719l55.172 55.172c21.523 1.267 54.805-32.013 53.539-53.535l-55.172-55.174c30.389-10.508 65.453-3.637 89.717 20.628 18.111 18.11 26.53 42.236 25.267 65.945-.774 14.53 4.664 28.737 14.953 39.026l.47.47c-21.34 35.758 7.426 60.254 31.002 59.349-4.242 20.265 17.449 41.38 36.068 41.38-4.605 17.852 9.215 36.471 30.713 40.694-8.662 31.284 38.766 64.66 66.229 22.586l29.445 29.444c15.978 15.985 15.978 41.895-.002 57.879zm-14.069-31.437c0-9.314-7.551-16.866-16.867-16.866-9.314 0-16.867 7.552-16.867 16.866 0 9.318 7.553 16.87 16.867 16.87 9.317 0 16.867-7.552 16.867-16.87zm-147.164-49.261c-11.455-11.805-29.215-12.69-61.525-14.83-4.91-.325-7.928 2.824-8.342 7.596-.092 1.071-7.859 72.236-7.859 72.236s47.959 32.404 67.65 45.531c18.264-32.976 46.336-34.965 67.311-51.544l-57.235-58.989zm-27.847-29.058c25.016-.002 28.795-35.432 5.193-39.624-88.76-15.769-84.098-15.259-87.025-15.259-10.898 0-20.342 7.778-22.453 18.498l-7.668 67.748c-1.037 10.822 2.477 20.188 10.865 26.288 8.367 6.086 34.787 24.88 34.787 24.88s5.629-48.67 7.213-62.669c1.586-13.998 9.449-23.653 24.434-22.921 1.587.078 31.927 3.059 34.654 3.059z"/></svg>