<svg xmlns="http://www.w3.org/2000/svg" width="90.276" height="92.729" viewBox="-0.589 3.544 90.276 92.729" enable-background="new -0.589 3.544 90.276 92.729"><circle cx="18.557" cy="13.984" r="10.439"/><circle cx="44.277" cy="13.984" r="10.44"/><circle cx="69.867" cy="13.984" r="10.44"/><path d="M59.23 28.193h-29.77c-2.544 0-4.606 2.062-4.606 4.604v26.32c0 2.545 2.062 4.604 4.606 4.604h1.417v32.55h26.394v-32.55h1.959c2.545 0 4.604-2.061 4.604-4.604v-26.32c0-2.541-2.059-4.604-4.604-4.604zM18.361 59.118v-26.32c0-1.646.383-3.195 1.028-4.604h-15.374c-2.542 0-4.604 2.062-4.604 4.604v26.32c0 2.545 2.062 4.604 4.604 4.604h1.418v32.55h18.949v-27.284c-3.573-1.844-6.021-5.577-6.021-9.87zM85.083 28.193h-15.778c.645 1.408 1.028 2.959 1.028 4.604v26.32c0 4.508-2.7 8.393-6.565 10.13v27.024h19.357v-32.55h1.957c2.543 0 4.605-2.061 4.605-4.604v-26.32c.002-2.541-2.062-4.604-4.604-4.604z"/></svg>