<svg xmlns="http://www.w3.org/2000/svg" width="512" height="512" viewBox="0 0 512 512"><path d="M256.25 141.666c-129.917 0-206.25 107-206.25 107s83 121.668 206.25 121.668c132.75 0 205.75-121.668 205.75-121.668s-73.666-107-205.75-107zm1.75 194.334c-44.184 0-80-35.816-80-80 0-44.183 35.816-80 80-80 44.183 0 80 35.817 80 80 0 44.184-35.817 80-80 80zm45-80c0 24.854-20.147 45-45 45-24.854 0-45-20.146-45-45 0-2.979.297-5.889.85-8.706 22.112 8.115 43.895-13.234 36.069-35.556 2.623-.477 5.32-.738 8.081-.738 24.853 0 45 20.147 45 45z"/></svg>