<svg xmlns="http://www.w3.org/2000/svg" width="100" height="64.844" viewBox="0 0 100 64.844"><path d="M24.948 11.445c0 6.328-5.13 11.445-11.432 11.445-6.341 0-11.458-5.117-11.458-11.445-.001-6.315 5.116-11.445 11.458-11.445 6.302 0 11.432 5.13 11.432 11.445zM75.053 11.445c0 6.328 5.131 11.445 11.432 11.445 6.342 0 11.473-5.117 11.473-11.445-.002-6.315-5.133-11.445-11.474-11.445-6.3 0-11.431 5.13-11.431 11.445zM43.672 50.781c-.26-2.435.677-4.688 2.266-6.327-9.688-1.85-13.659-6.575-17.109-10.848-1.68-2.096-3.281-4.088-5.404-5.495l-.195-.091c-1.81-1.498-4.102-2.448-6.627-2.448h-6.185c-5.73.001-10.418 4.676-10.418 10.405v28.867h27.018v-18.659c3.945 3.451 9.519 6.732 18.086 8.164-.716-1.041-1.276-2.213-1.432-3.568zM89.598 25.573h-6.199c-2.512 0-4.816.951-6.613 2.448l-.195.091c-2.123 1.406-3.725 3.387-5.417 5.495-3.789 4.688-8.086 10.039-20.104 11.367-2.72.313-4.673 2.761-4.375 5.482.273 2.539 2.422 4.414 4.921 4.414l.561-.026c10.182-1.133 16.484-4.753 20.82-8.594v18.594h27.003v-28.867c0-5.729-4.687-10.404-10.402-10.404z"/></svg>