<svg xmlns="http://www.w3.org/2000/svg" width="412.948" height="378.952" viewBox="0 0 412.948 378.952"><g fill-rule="evenodd" clip-rule="evenodd"><path d="M161.979 0c2.786 7.986 4.97 16.25 8.49 23.899 6.542 14.21 23.664 20.154 38.197 13.804 5.938-2.594 11.776-5.438 17.536-8.408 2.348-1.21 3.755-.847 5.554 1.005 7.31 7.525 14.706 14.972 22.261 22.25 2.125 2.048 2.074 3.675.844 6.067-2.734 5.32-5.29 10.738-7.788 16.176-7.49 16.303-.248 34.054 16.562 40.518 5.736 2.207 11.523 4.312 17.381 6.166 2.737.866 3.544 2.305 3.508 5.057-.138 10.324-.146 20.652.004 30.976.041 2.813-.908 4.166-3.588 5.002-5.391 1.682-10.688 3.672-16.004 5.589-18.205 6.562-25.644 24.575-17.375 42.043 2.489 5.26 5.178 10.437 7.37 15.816.564 1.384.218 3.988-.77 5.021-7.474 7.827-15.146 15.47-22.951 22.968-.944.906-3.331 1.268-4.57.745-5.507-2.323-10.827-5.089-16.239-7.645-17.057-8.057-34.947-.854-41.541 16.764-2.155 5.757-4.021 11.625-6.291 17.334-.471 1.184-2.135 2.672-3.271 2.69-11.978.195-23.96.121-36.095.121-2.431-6.745-4.791-13.306-7.161-19.861-6.315-17.468-23.998-24.983-40.91-17.323-6.505 2.946-12.929 6.069-19.66 9.24-8.477-8.47-17.001-16.876-25.326-25.477-.8-.826-.91-3.085-.402-4.28 2.338-5.505 5.038-10.854 7.554-16.285 8.157-17.604.7-35.309-17.632-41.911-6.555-2.36-13.11-4.721-19.665-7.083v-37.995c7.178-2.603 14.413-5.059 21.522-7.84 16.352-6.396 23.496-23.834 16.367-39.814-2.575-5.771-5.502-11.387-7.971-17.2-.57-1.342-.583-3.838.27-4.725 8.293-8.626 16.825-17.023 25.282-25.478 7.093 3.363 13.775 6.738 20.623 9.735 15.54 6.802 33.042-.319 39.262-16.037 2.811-7.103 5.104-14.411 7.631-21.626 12.996.002 25.994.002 38.992.002zm32.164 141.769c-.034-28.498-23.476-51.907-51.849-51.775-28.48.132-51.771 23.493-51.797 51.952-.025 28.634 23.65 52.22 52.224 52.025 28.461-.195 51.456-23.539 51.422-52.202zM412.948 272.966c-3.539 1.403-7.066 2.836-10.619 4.203-9.942 3.827-13.678 12.995-9.206 22.661 4.539 9.813 4.539 9.813-3.204 17.557-6.697 6.697-6.697 6.697-15.096 2.634-11.283-5.459-20.12-1.806-24.444 10.107-3.204 8.829-3.204 8.829-12.622 8.829-10.716 0-10.716 0-14.667-10.232-3.914-10.136-12.718-13.773-22.526-9.312-9.825 4.471-9.906 4.55-17.503-3.249-8.274-8.494-7.536-4.603-2.694-15.202 5.19-11.359 1.865-19.852-9.828-24.118-9.077-3.313-9.077-3.313-9.077-13.02 0-10.605 0-10.605 9.977-14.391 10.421-3.954 13.968-12.619 9.357-22.864-4.354-9.678-4.354-9.678 3.184-17.215 6.668-6.669 6.668-6.669 15.577-2.593 11.248 5.146 19.858 1.513 24.063-10.154 3.172-8.798 3.172-8.798 12.677-8.798 10.784 0 10.784 0 14.65 10.205 3.808 10.048 12.725 13.643 22.619 9.12 9.712-4.44 9.702-4.431 17.198 3.034 2.232 2.224 4.535 4.376 6.965 6.715-1.73 3.766-3.359 7.181-4.88 10.644-3.995 9.096-.377 17.984 8.849 21.565 3.695 1.435 7.498 2.593 11.251 3.876-.001 6.666-.001 13.332-.001 19.998zm-76.015-37.156c-14.984.014-27.412 12.385-27.448 27.322-.037 15.231 12.381 27.671 27.615 27.663 15.064-.007 27.26-12.191 27.346-27.321.086-15.37-12.156-27.679-27.513-27.664zM208.974 378.952c-.639-2.41-1.166-4.858-1.942-7.225-1.415-4.309-4.544-5.13-7.916-1.997-1.697 1.574-3.061 3.508-4.764 5.502-3.692-2.114-6.8-3.894-10.277-5.884.558-1.999 1.102-3.872 1.604-5.756 1.646-6.171-.902-8.954-6.873-6.82-4.492 1.606-6.638.588-8.977-3.54-2.183-3.855-1.67-5.982 1.385-8.8 5.137-4.739 4.248-7.829-2.324-9.582-6.576-1.755-6.576-1.755-5.372-12.745 1.833-.501 3.752-1.01 5.663-1.55 5.978-1.688 6.861-4.758 2.64-9.144-4.038-4.195-3.864-9.53.667-13.134.787-.627 2.46-.499 3.618-.241 10.383 2.313 11.548 1.086 8.681-9.362-.175-.642-.367-1.278-.695-2.421 2.548-1.536 5.13-3.296 7.913-4.646.868-.422 2.431-.02 3.394.516 1.12.623 1.92 1.814 2.877 2.741 4.519 4.375 7.305 3.596 9.157-2.437.608-1.984 1.194-5.175 2.438-5.525 2.924-.825 6.288-.586 9.36-.081.903.148 1.665 2.561 2.081 4.049 2.27 8.124 4.651 8.813 10.593 3.073 1.229-1.188 3.285-3.085 4.216-2.726 3.037 1.171 6.22 2.798 8.325 5.159.892 1-.758 4.266-1.253 6.501-1.004 4.524 1.069 6.948 5.453 6.293 2.576-.385 6.113-2.153 7.485-1.082 2.543 1.988 3.816 5.602 5.528 8.392-8.738 11.201-8.738 11.201 4.102 15.802v10.703c-13.09 4.958-13.09 4.958-4.209 15.588-.543 1.097-1.216 2.229-1.685 3.442-1.884 4.878-4.546 6.857-10.129 4.578-5.014-2.048-7.723.911-6.446 6.157.507 2.087 1.14 4.144 1.814 6.575l-10.447 6.038c-1.488-1.848-2.866-3.996-4.666-5.694-3.283-3.1-6.493-2.163-7.919 2.139-.779 2.355-1.405 4.762-2.101 7.144h-10.999zm-14.163-51.095c.052 11.01 9.242 20.137 20.05 19.909 10.931-.229 19.776-9.46 19.595-20.451-.178-10.811-9.043-19.512-19.881-19.512-11.051.001-19.817 8.895-19.764 20.054z"/></g></svg>