<svg xmlns="http://www.w3.org/2000/svg" width="100" height="100" viewBox="0 0 100 100"><g><polygon points="57.387,45.69 15.997,87.077 13.064,91.936 14.444,93.316 19.306,90.386 60.693,48.999"/><path d="M97.542 8.841c-3.146-3.144-8.073-3.336-11.218-.193l-24.197 24.197c-.277.28-.277.729 0 1.01.821.823.821 2.152 0 2.973-.818.82-2.15.823-2.975.001-.277-.28-.729-.28-1.01-.001l-2.787 2.788c-.229.233-.258.58-.102.853l10.66 10.661c.274.156.623.128.854-.103l2.787-2.787c.277-.279.275-.73-.002-1.01-.822-.821-.822-2.155 0-2.976.818-.821 2.153-.818 2.975 0 .275.281.729.281 1.009 0l24.196-24.193c3.149-3.147 2.956-8.073-.19-11.22zM86.777 80.439l-28.355-26.339-9.92 9.92 27.217 27.238c3.004 3.124 7.813 3.124 10.938.121 3.005-3.126 3.124-7.934.12-10.94zm-2.765 8.291c-1.561 1.686-4.086 1.445-5.771-.121-1.44-1.44-1.44-4.082 0-5.645 1.685-1.566 4.21-1.566 5.771 0 1.562 1.563 1.562 4.327 0 5.766zM42.37 57.879l9.688-9.688-18.756-17.424c-2.762-3.003-3.487-4.205-2.762-7.693.843-3.847.169-10.907-6.372-14.669-7.519-4.325-15.148-.36-15.148-.36l-.6.963s6.733 4.448 7.574 4.928c.961.603 3.845 3.846.358 9.017-3.368 5.171-7.091 3.485-8.173 2.646-.841-.482-7.574-4.811-7.574-4.811l-.599.962s-.483 9.016 6.968 13.825c3.486 2.282 7.216 2.282 9.861 1.322 2.645-.841 4.565.122 7.813 3.246l17.722 17.736z"/></g></svg>