<svg xmlns="http://www.w3.org/2000/svg" width="512" height="512" viewBox="0 0 512 512"><path d="M281.644 263.708l31.86-17.859c5.979 58.887-40.209 109.772-99.111 109.772-55.018 0-99.621-44.599-99.621-99.621 0-55.018 44.604-99.623 99.621-99.623 22.175 0 42.655 7.25 59.209 19.504l-32.206 18.052c-8.278-3.615-17.407-5.634-27.003-5.634-37.33 0-67.7 30.371-67.7 67.701 0 37.329 30.37 67.7 67.7 67.7 34.723 0 63.411-26.281 67.251-59.992zm62.47-34.736c8.878 43.062-3.681 88.333-36.05 120.701-25.021 25.021-58.287 38.8-93.672 38.8-35.384 0-68.65-13.779-93.672-38.8-25.021-25.021-38.8-58.288-38.8-93.673 0-35.383 13.779-68.649 38.801-93.671s58.288-38.802 93.671-38.802c33.551 0 65.193 12.397 89.714 35.014 9.027-6.075 16.166-14.469 20.716-24.319-29.183-26.479-67.922-42.615-110.43-42.615-90.788-.001-164.392 73.604-164.392 164.393 0 90.795 73.604 164.394 164.393 164.394 103.142 0 181.283-94.156 161.316-196.151-11.112-1.379-21.947.414-31.595 4.729zm67.916-83.559l13.255-51.427-74.13 41.552c-6.644 20.185-20.546 36.977-38.893 47.262l-77.477 43.428c-5.75-4.11-12.786-6.538-20.394-6.538-19.392 0-35.113 15.72-35.113 35.113 0 19.391 15.722 35.113 35.113 35.113 19.798 0 35.979-16.451 35.072-36.761l77.688-43.546c18.426-10.328 40.057-13.366 60.614-8.514l74.235-41.61-49.97-14.072z"/></svg>