<svg xmlns="http://www.w3.org/2000/svg" width="100" height="100" viewBox="0 0 100 100"><path d="M49.317 64.832l19.186-19.282c1.784-1.786 1.784-4.678.002-6.464-1.787-1.784-4.678-1.783-6.462 0l-15.955 16.053-10.478-10.477c-1.783-1.784-4.679-1.784-6.462 0-1.785 1.785-1.785 4.678 0 6.462l13.706 13.707c.893.894 2.063 1.339 3.234 1.339 1.168 0 2.338-.445 3.229-1.338zM47.155 14.719c-23.457 0-42.54 18.537-42.54 41.994 0 8.939 2.865 18.287 8.022 24.287h-7.523c-2.549 0-4.614 2.451-4.614 5s2.065 5 4.614 5h23.886v-24.52c0-2.549-1.951-4.613-4.5-4.613s-4.5 2.067-4.5 4.613v9.201c-5-5.353-5.413-11.705-5.413-18.423 0-17.759 14.629-32.206 32.387-32.206 17.76 0 32.293 14.447 32.293 32.206s-14.397 32.208-32.158 32.208c-2.853 0-5.143 2.313-5.143 5.166 0 2.854 2.322 5.168 5.177 5.168 23.458 0 42.546-19.083 42.546-42.54 0-23.458-19.076-42.541-42.534-42.541zM40.414 11h13.482c3.156 0 5.713-2.345 5.713-5.5 0-3.154-2.557-5.5-5.713-5.5h-13.482c-3.158 0-5.713 2.346-5.713 5.5 0 3.155 2.555 5.5 5.713 5.5z"/></svg>